<svg width="720" height="760" viewBox="0 0 720 760" fill="none" xmlns="http://www.w3.org/2000/svg">
  <rect width="720" height="760" rx="36" fill="#F5E7D6"/>
  <circle cx="550" cy="145" r="110" fill="#D7B49A"/>
  <circle cx="148" cy="610" r="128" fill="#E9D2BE"/>
  <rect x="110" y="110" width="500" height="540" rx="34" fill="#FFF8F0"/>
  <rect x="150" y="150" width="420" height="460" rx="28" fill="#EAD8C8"/>
  <path d="M288 258C288 219.34 319.34 188 358 188C396.66 188 428 219.34 428 258V332H288V258Z" fill="#7F4D36"/>
  <path d="M254 316C254 291.699 273.699 272 298 272H418C442.301 272 462 291.699 462 316V504H254V316Z" fill="#A96F52"/>
  <path d="M254 351H462V503C462 525.091 444.091 543 422 543H294C271.909 543 254 525.091 254 503V351Z" fill="#5C3727"/>
  <rect x="334" y="372" width="48" height="104" rx="24" fill="#F3E7DB"/>
  <rect x="185" y="202" width="116" height="156" rx="24" fill="#FFF5EA"/>
  <rect x="418" y="425" width="104" height="108" rx="24" fill="#FFF5EA"/>
  <path d="M216 250H269" stroke="#7F4D36" stroke-width="12" stroke-linecap="round"/>
  <path d="M447 469H494" stroke="#7F4D36" stroke-width="12" stroke-linecap="round"/>
</svg>
